<?xml version="1.0" encoding="UTF-8"?>
<svg width="96px" height="86px" viewBox="0 0 96 86" version="1.1" xmlns="http://www.w3.org/2000/svg" xmlns:xlink="http://www.w3.org/1999/xlink">
    <!-- Generator: Sketch 48.2 (47327) - http://www.bohemiancoding.com/sketch -->
    <title>Group</title>
    <desc>Created with Sketch.</desc>
    <defs></defs>
    <g id="Page-1" stroke="none" stroke-width="1" fill="none" fill-rule="evenodd">
        <g id="noun_1205973_cc" fill="#1A64B7" fill-rule="nonzero">
            <g id="Group">
                <path d="M39.3,8.9 C39.3,13.7 43.2,17.7 48.1,17.7 C52.9,17.7 56.9,13.8 56.9,8.9 C56.9,4 52.8,0.1 48,0.1 C43.2,0.1 39.3,4 39.3,8.9 Z M52.8,8.9 C52.8,11.5 50.7,13.7 48,13.7 C45.3,13.7 43.2,11.6 43.2,8.9 C43.2,6.2 45.3,4.1 48,4.1 C50.7,4.1 52.8,6.3 52.8,8.9 Z" id="Shape"></path>
                <path d="M12.8,60.6 C17.6,60.6 21.6,56.7 21.6,51.8 C21.6,46.9 17.7,43 12.8,43 C7.9,43 4,46.9 4,51.8 C4,56.7 8,60.6 12.8,60.6 Z M12.8,47.1 C15.4,47.1 17.6,49.2 17.6,51.9 C17.6,54.6 15.5,56.7 12.8,56.7 C10.1,56.7 8,54.6 8,51.9 C8,49.2 10.2,47.1 12.8,47.1 Z" id="Shape"></path>
                <path d="M74.4,51.9 C74.4,56.7 78.3,60.7 83.2,60.7 C88.1,60.7 92,56.8 92,51.9 C92,47 88.1,43.1 83.2,43.1 C78.3,43.1 74.4,47.1 74.4,51.9 Z M87.9,51.9 C87.9,54.5 85.8,56.7 83.1,56.7 C80.4,56.7 78.3,54.6 78.3,51.9 C78.3,49.2 80.4,47.1 83.1,47.1 C85.8,47.1 87.9,49.3 87.9,51.9 Z" id="Shape"></path>
                <path d="M87.2,64 L79.2,64 C74.9,64 71.3,67.5 71.2,71.8 L50,61.1 L50,42.9 L58,42.9 C59.1,42.9 60,42 60,40.9 L60,29 C60,24.6 56.4,21 52,21 L44,21 C39.6,21 36,24.6 36,29 L36,40.9 C36,42 36.9,42.9 38,42.9 L46,42.9 L46,61 L24.8,71.7 C24.6,67.4 21.1,64 16.8,64 L8.8,64 C4.4,64 0.8,67.6 0.8,72 L0.8,83.9 C0.8,85 1.7,85.9 2.8,85.9 L22.8,85.9 C23.9,85.9 24.8,85 24.8,83.9 L24.8,76.2 L47.9,64.5 L71.1,76.3 L71.1,83.9 C71.1,85 72,85.9 73.1,85.9 L93.1,85.9 C94.2,85.9 95.1,85 95.1,83.9 L95.1,72 C95.2,67.6 91.6,64 87.2,64 Z M20.8,81.9 L4.8,81.9 L4.8,72 C4.8,69.8 6.6,68 8.8,68 L16.8,68 C19,68 20.8,69.8 20.8,72 L20.8,81.9 Z M40,38.9 L40,29 C40,26.8 41.8,25 44,25 L52,25 C54.2,25 56,26.8 56,29 L56,38.9 L40,38.9 Z M91.2,81.9 L75.2,81.9 L75.2,72 C75.2,69.8 77,68 79.2,68 L87.2,68 C89.4,68 91.2,69.8 91.2,72 L91.2,81.9 Z" id="Shape"></path>
            </g>
        </g>
    </g>
</svg>