<?xml version="1.0" encoding="UTF-8"?>
<svg width="86px" height="60px" viewBox="0 0 86 60" version="1.1" xmlns="http://www.w3.org/2000/svg" xmlns:xlink="http://www.w3.org/1999/xlink">
    <!-- Generator: Sketch 48.2 (47327) - http://www.bohemiancoding.com/sketch -->
    <title>Shape</title>
    <desc>Created with Sketch.</desc>
    <defs></defs>
    <g id="Page-1" stroke="none" stroke-width="1" fill="none" fill-rule="evenodd">
        <g id="noun_1205970_cc" fill="#1A64B7" fill-rule="nonzero">
            <path d="M14.2,51.4 L34.2,51.4 C35.3,51.4 36.2,50.5 36.2,49.4 L36.2,37.5 C36.2,33.1 32.6,29.5 28.2,29.5 L20.2,29.5 C15.8,29.5 12.2,33.1 12.2,37.5 L12.2,49.4 C12.2,50.5 13.1,51.4 14.2,51.4 Z M16.2,37.5 C16.2,35.3 18,33.5 20.2,33.5 L28.2,33.5 C30.4,33.5 32.2,35.3 32.2,37.5 L32.2,47.4 L16.2,47.4 L16.2,37.5 Z M49.9,16.3 C48.8,16.3 47.9,15.4 47.9,14.3 C47.9,13.2 48.8,12.3 49.9,12.3 L74.1,12.3 C75.2,12.3 76.1,13.2 76.1,14.3 C76.1,15.4 75.2,16.3 74.1,16.3 L49.9,16.3 Z M49.9,26.8 C48.8,26.8 47.9,25.9 47.9,24.8 C47.9,23.7 48.8,22.8 49.9,22.8 L74.1,22.8 C75.2,22.8 76.1,23.7 76.1,24.8 C76.1,25.9 75.2,26.8 74.1,26.8 L49.9,26.8 Z M49.9,37.3 C48.8,37.3 47.9,36.4 47.9,35.3 C47.9,34.2 48.8,33.3 49.9,33.3 L74.1,33.3 C75.2,33.3 76.1,34.2 76.1,35.3 C76.1,36.4 75.2,37.3 74.1,37.3 L49.9,37.3 Z M49.9,47.8 C48.8,47.8 47.9,46.9 47.9,45.8 C47.9,44.7 48.8,43.8 49.9,43.8 L74.1,43.8 C75.2,43.8 76.1,44.7 76.1,45.8 C76.1,46.9 75.2,47.8 74.1,47.8 L49.9,47.8 Z M24.2,26.1 C29,26.1 33,22.2 33,17.3 C33,12.4 29.1,8.5 24.2,8.5 C19.3,8.5 15.4,12.4 15.4,17.3 C15.4,22.2 19.4,26.1 24.2,26.1 Z M24.2,12.6 C26.8,12.6 29,14.7 29,17.4 C29,20.1 26.9,22.2 24.2,22.2 C21.5,22.2 19.4,20.1 19.4,17.4 C19.4,14.7 21.6,12.6 24.2,12.6 Z M85.3,57.3 L85.3,2.8 C85.3,1.7 84.4,0.8 83.3,0.8 L2.7,0.8 C1.6,0.8 0.7,1.7 0.7,2.8 L0.7,57.3 C0.7,58.4 1.6,59.3 2.7,59.3 L83.3,59.3 C84.4,59.3 85.3,58.4 85.3,57.3 Z M81.3,55.3 L4.7,55.3 L4.7,4.8 L81.3,4.8 L81.3,55.3 Z" id="Shape"></path>
        </g>
    </g>
</svg>