<?xml version="1.0" encoding="UTF-8"?>
<svg width="92px" height="76px" viewBox="0 0 92 76" version="1.1" xmlns="http://www.w3.org/2000/svg" xmlns:xlink="http://www.w3.org/1999/xlink">
    <!-- Generator: Sketch 48.2 (47327) - http://www.bohemiancoding.com/sketch -->
    <title>Group</title>
    <desc>Created with Sketch.</desc>
    <defs></defs>
    <g id="Page-1" stroke="none" stroke-width="1" fill="none" fill-rule="evenodd">
        <g id="noun_1205975_cc" fill="#1A64B7" fill-rule="nonzero">
            <g id="Group">
                <path d="M46,0.2 C33.8,0.2 23.8,10.2 23.8,22.4 C23.8,29.5 27.4,40.9 33.3,48.5 C32.5,48.8 32,49.5 32,50.4 L32,58.6 C32,59.7 32.9,60.6 34,60.6 L35.6,60.6 L35.6,66.4 C35.6,67.5 36.5,68.4 37.6,68.4 L38.4,68.4 L38.4,74 C38.4,75.1 39.3,76 40.4,76 L51.8,76 C52.9,76 53.8,75.1 53.8,74 L53.8,68.5 L54.6,68.5 C55.7,68.5 56.6,67.6 56.6,66.5 L56.6,60.7 L58,60.7 C59.1,60.7 60,59.8 60,58.7 L60,50.5 C60,49.6 59.5,48.9 58.7,48.6 C64.6,41 68.2,29.7 68.2,22.4 C68.2,10.1 58.2,0.2 46,0.2 Z M49.7,72 L42.3,72 L42.3,68.5 L49.7,68.5 L49.7,72 Z M52.4,64.4 L51.6,64.4 L40.3,64.4 L39.5,64.4 L39.5,60.6 L52.4,60.6 L52.4,64.4 Z M56,56.6 L54.4,56.6 L37.6,56.6 L36,56.6 L36,52.4 L56,52.4 L56,56.6 Z M53.5,48.4 L38.4,48.4 C38.3,48.3 38.2,48.1 38.1,48 C31.9,41.5 27.8,29.5 27.8,22.4 C27.8,12.4 36,4.2 46,4.2 C56,4.2 64.2,12.4 64.2,22.4 C64.2,29.8 59.9,42 53.5,48.4 Z" id="Shape"></path>
                <path d="M84.1,1.2 L72.8,8.6 C71.9,9.2 71.6,10.4 72.2,11.4 C72.6,12 73.2,12.3 73.9,12.3 C74.3,12.3 74.7,12.2 75,12 L86.3,4.6 C87.2,4 87.5,2.8 86.9,1.8 C86.3,0.9 85,0.6 84.1,1.2 Z" id="Shape"></path>
                <path d="M89.9,23.7 C89.9,23.7 89.9,23.7 89.9,23.7 L76.4,23.8 C75.3,23.8 74.4,24.7 74.4,25.8 C74.4,26.9 75.3,27.8 76.4,27.8 C76.4,27.8 76.4,27.8 76.4,27.8 L89.9,27.7 C91,27.7 91.9,26.8 91.9,25.7 C91.9,24.6 91,23.7 89.9,23.7 Z" id="Shape"></path>
                <path d="M86.3,47.5 L75,40.1 C74.1,39.5 72.8,39.7 72.2,40.7 C71.6,41.6 71.8,42.9 72.8,43.5 L84.1,50.9 C84.4,51.1 84.8,51.2 85.2,51.2 C85.9,51.2 86.5,50.9 86.9,50.3 C87.5,49.3 87.2,48.1 86.3,47.5 Z" id="Shape"></path>
                <path d="M17.6,25.7 C17.6,24.6 16.7,23.7 15.6,23.7 C15.6,23.7 15.6,23.7 15.6,23.7 L2.1,23.7 C1,23.7 0.1,24.6 0.1,25.7 C0.1,26.8 1,27.7 2.1,27.7 C2.1,27.7 2.1,27.7 2.1,27.7 L15.6,27.6 C16.7,27.7 17.6,26.8 17.6,25.7 Z" id="Shape"></path>
                <path d="M8.5,0.6 C7.7,-0.2 6.4,-0.1 5.7,0.7 C4.9,1.5 5,2.8 5.8,3.5 L15.7,12.7 C16.1,13.1 16.6,13.2 17.1,13.2 C17.6,13.2 18.2,13 18.6,12.6 C19.4,11.8 19.3,10.5 18.5,9.8 L8.5,0.6 Z" id="Shape"></path>
                <path d="M15.7,39.4 L5.8,48.6 C5,49.4 4.9,50.6 5.7,51.4 C6.1,51.8 6.6,52 7.2,52 C7.7,52 8.2,51.8 8.6,51.5 L18.5,42.3 C19.3,41.5 19.4,40.3 18.6,39.5 C17.7,38.7 16.5,38.6 15.7,39.4 Z" id="Shape"></path>
            </g>
        </g>
    </g>
</svg>