<?xml version="1.0" encoding="UTF-8"?>
<svg width="82px" height="84px" viewBox="0 0 82 84" version="1.1" xmlns="http://www.w3.org/2000/svg" xmlns:xlink="http://www.w3.org/1999/xlink">
    <!-- Generator: Sketch 48.2 (47327) - http://www.bohemiancoding.com/sketch -->
    <title>Group</title>
    <desc>Created with Sketch.</desc>
    <defs></defs>
    <g id="Page-1" stroke="none" stroke-width="1" fill="none" fill-rule="evenodd">
        <g id="noun_1205964_cc" fill="#1A64B7" fill-rule="nonzero">
            <g id="Group">
                <path d="M12.6,84 C13.7,84 14.6,83.1 14.6,82 L14.6,48.4 C14.6,47.3 13.7,46.4 12.6,46.4 L3.1,46.4 C2,46.4 1.1,47.3 1.1,48.4 L1.1,82 C1.1,83.1 2,84 3.1,84 L12.6,84 Z M5.1,50.4 L10.6,50.4 L10.6,80 L5.1,80 L5.1,50.4 Z" id="Shape"></path>
                <path d="M19.9,32.7 C18.8,32.7 17.9,33.6 17.9,34.7 L17.9,82 C17.9,83.1 18.8,84 19.9,84 L29.4,84 C30.5,84 31.4,83.1 31.4,82 L31.4,34.7 C31.4,33.6 30.5,32.7 29.4,32.7 L19.9,32.7 Z M27.4,80 L21.9,80 L21.9,36.7 L27.4,36.7 L27.4,80 Z" id="Shape"></path>
                <path d="M36.8,40.2 C35.7,40.2 34.8,41.1 34.8,42.2 L34.8,82 C34.8,83.1 35.7,84 36.8,84 L46.3,84 C47.4,84 48.3,83.1 48.3,82 L48.3,42.2 C48.3,41.1 47.4,40.2 46.3,40.2 L36.8,40.2 Z M44.3,80 L38.8,80 L38.8,44.2 L44.3,44.2 L44.3,80 Z" id="Shape"></path>
                <path d="M53.6,26.1 C52.5,26.1 51.6,27 51.6,28.1 L51.6,82 C51.6,83.1 52.5,84 53.6,84 L63.1,84 C64.2,84 65.1,83.1 65.1,82 L65.1,28.1 C65.1,27 64.2,26.1 63.1,26.1 L53.6,26.1 Z M61.1,80 L55.6,80 L55.6,30.1 L61.1,30.1 L61.1,80 Z" id="Shape"></path>
                <path d="M80,12.8 L70.5,12.8 C69.4,12.8 68.5,13.7 68.5,14.8 L68.5,82 C68.5,83.1 69.4,84 70.5,84 L80,84 C81.1,84 82,83.1 82,82 L82,14.8 C82,13.7 81.1,12.8 80,12.8 Z M78,80 L72.5,80 L72.5,16.8 L78,16.8 L78,80 Z" id="Shape"></path>
                <path d="M2.8,35.5 L54.9,11.5 L57.2,16.4 C57.5,17 58.1,17.5 58.8,17.6 C58.9,17.6 58.9,17.6 59,17.6 C59.6,17.6 60.3,17.3 60.6,16.8 L69.2,4.7 C69.6,4.1 69.7,3.4 69.4,2.7 C69.1,2.1 68.5,1.6 67.8,1.5 L53,0.1 C52.3,7.49400542e-16 51.6,0.4 51.2,0.9 C50.8,1.5 50.7,2.2 51,2.9 L53.3,7.8 L1.2,31.8 C0.2,32.3 -0.2,33.5 0.2,34.5 C0.5,35.2 1.3,35.7 2,35.7 C2.3,35.7 2.6,35.6 2.8,35.5 Z M64,5.1 L59.4,11.6 L56.1,4.4 L64,5.1 Z" id="Shape"></path>
            </g>
        </g>
    </g>
</svg>