<?xml version="1.0" encoding="UTF-8"?>
<svg width="68px" height="68px" viewBox="0 0 68 68" version="1.1" xmlns="http://www.w3.org/2000/svg" xmlns:xlink="http://www.w3.org/1999/xlink">
    <!-- Generator: Sketch 48.2 (47327) - http://www.bohemiancoding.com/sketch -->
    <title>Shape</title>
    <desc>Created with Sketch.</desc>
    <defs></defs>
    <g id="Page-1" stroke="none" stroke-width="1" fill="none" fill-rule="evenodd">
        <g id="noun_1205961_cc" fill="#1A64B7" fill-rule="nonzero">
            <path d="M2.9,67.3 L65.2,67.3 C66.3,67.3 67.2,66.4 67.2,65.3 L67.2,18.8 C67.2,17.7 66.3,16.8 65.2,16.8 L53.9,16.8 L53.9,2.8 C53.9,1.7 53,0.8 51.9,0.8 L47.4,0.8 L21.2,0.8 L16.1,0.8 C15,0.8 14.1,1.7 14.1,2.8 L14.1,16.8 L2.9,16.8 C1.8,16.8 0.9,17.7 0.9,18.8 L0.9,65.3 C0.9,66.4 1.8,67.3 2.9,67.3 Z M18.1,4.8 L21.2,4.8 L47.3,4.8 L49.8,4.8 L49.8,16.8 L18.1,16.8 L18.1,4.8 Z M4.9,20.8 L16.2,20.8 L52,20.8 L63.3,20.8 L63.3,30.9 L44.3,44.8 L40.7,44.8 L40.7,40.6 C40.7,39.5 39.8,38.6 38.7,38.6 L29.2,38.6 C28.1,38.6 27.2,39.5 27.2,40.6 L27.2,44.8 L23.6,44.8 L4.9,30.9 L4.9,20.8 Z M36.8,42.6 L36.8,51 L31.3,51 L31.3,42.6 L36.8,42.6 Z M4.9,35.9 L21.8,48.4 C21.8,48.4 21.8,48.4 21.8,48.4 C22,48.5 22.1,48.6 22.3,48.7 C22.3,48.7 22.4,48.7 22.4,48.7 C22.6,48.7 22.8,48.8 22.9,48.8 C22.9,48.8 22.9,48.8 22.9,48.8 C22.9,48.8 22.9,48.8 22.9,48.8 C22.9,48.8 22.9,48.8 22.9,48.8 L27.2,48.8 L27.2,53 C27.2,54.1 28.1,55 29.2,55 L38.7,55 C39.8,55 40.7,54.1 40.7,53 L40.7,48.8 L45,48.8 C45,48.8 45,48.8 45,48.8 C45.2,48.8 45.4,48.8 45.5,48.7 C45.5,48.7 45.6,48.7 45.6,48.7 C45.8,48.6 45.9,48.6 46.1,48.4 C46.1,48.4 46.1,48.4 46.1,48.4 L63,35.9 L63,63.3 L4.9,63.3 L4.9,35.9 Z" id="Shape"></path>
        </g>
    </g>
</svg>